<?xml version="1.0" encoding="utf-8"?>
<!-- Generator: Adobe Illustrator 23.0.0, SVG Export Plug-In . SVG Version: 6.00 Build 0)  -->
<svg version="1.1" id="Слой_1" xmlns="http://www.w3.org/2000/svg" xmlns:xlink="http://www.w3.org/1999/xlink" x="0px" y="0px"
	 viewBox="0 0 512 512" style="enable-background:new 0 0 512 512;" xml:space="preserve">
<style type="text/css">
	.st0{fill:#FFFFFF;}
</style>
<path class="st0" d="M413,512H99c-54.7,0-99-44.3-99-99V99C0,44.3,44.3,0,99,0H413c54.7,0,99,44.3,99,99V413
	C512,467.7,467.7,512,413,512z"/>
<path d="M458.2,68.1c-1-4.7-5.6-9.3-10.3-10.3C420.7,52,399.5,52,378.3,52C291.2,52,238.9,98.6,200,160H112c-13.8,0-30,10-36.2,22.3
	l-41.7,83.4c-1.3,2.8-2,5.9-2.1,9c0,11.2,9.1,20.2,20.3,20.3h87.6l-19,19c-9.6,9.6-11,27.2,0,38.2l43,43c9.4,9.4,27.1,11.1,38.2,0
	l19-19v87.6c0,11.2,9.1,20.2,20.3,20.3c3.1-0.1,6.2-0.8,9-2.1l83.3-41.7C345.9,434,356,417.8,356,404v-88.1
	c61.3-39.1,108-91.5,108-178.1C464.1,116.5,464.1,95.3,458.2,68.1z M356,193.7c-18.6,0-33.7-15.1-33.7-33.8
	c0-18.6,15.1-33.7,33.8-33.7c18.6,0,33.7,15.1,33.7,33.8C389.8,178.6,374.7,193.7,356,193.7z"/>
</svg>
